<mxfile host="app.diagrams.net" modified="2024-02-06T10:42:54.427Z" agent="Mozilla/5.0 (Macintosh; Intel Mac OS X 10_15_7) AppleWebKit/537.36 (KHTML, like Gecko) Chrome/120.0.0.0 Safari/537.36" etag="1MPVri0opmlqjPdDnKsd" version="23.1.1" type="device">
  <diagram name="Page-1" id="c7558073-3199-34d8-9f00-42111426c3f3">
    <mxGraphModel dx="706" dy="527" grid="1" gridSize="10" guides="1" tooltips="1" connect="1" arrows="1" fold="1" page="1" pageScale="1" pageWidth="826" pageHeight="1169" background="none" math="0" shadow="0">
      <root>
        <mxCell id="0" />
        <mxCell id="1" parent="0" />
        <mxCell id="55" value="" style="edgeStyle=elbowEdgeStyle;elbow=horizontal;strokeColor=#990000;strokeWidth=2;exitX=0.545;exitY=0.002;exitDx=0;exitDy=0;exitPerimeter=0;entryX=0.565;entryY=1.012;entryDx=0;entryDy=0;entryPerimeter=0;" parent="1" source="LGiKxwKSYLCJIGK0Fo9F-98" target="LGiKxwKSYLCJIGK0Fo9F-104" edge="1">
          <mxGeometry width="100" height="100" relative="1" as="geometry">
            <mxPoint x="509.9999999999999" y="239.07100000000003" as="sourcePoint" />
            <mxPoint x="510.36" y="170" as="targetPoint" />
            <Array as="points">
              <mxPoint x="510.36" y="214" />
            </Array>
          </mxGeometry>
        </mxCell>
        <mxCell id="LGiKxwKSYLCJIGK0Fo9F-104" value="Teensy&#xa;Audio Shield" style="whiteSpace=wrap;align=center;verticalAlign=middle;fontStyle=1;strokeWidth=3;fillColor=#d5e8d4;strokeColor=#330000;" parent="1" vertex="1">
          <mxGeometry x="420" y="120" width="160" height="71" as="geometry" />
        </mxCell>
        <mxCell id="LGiKxwKSYLCJIGK0Fo9F-98" value="Teensy&#xa;microcontroller" style="whiteSpace=wrap;align=center;verticalAlign=middle;fontStyle=1;strokeWidth=3;fillColor=#d5e8d4;strokeColor=#330000;" parent="1" vertex="1">
          <mxGeometry x="385" y="250" width="230" height="71" as="geometry" />
        </mxCell>
        <mxCell id="LGiKxwKSYLCJIGK0Fo9F-111" value="" style="edgeStyle=elbowEdgeStyle;elbow=horizontal;strokeColor=#990000;strokeWidth=2" parent="1" edge="1">
          <mxGeometry width="100" height="100" relative="1" as="geometry">
            <mxPoint x="490" y="191" as="sourcePoint" />
            <mxPoint x="490" y="250" as="targetPoint" />
            <Array as="points">
              <mxPoint x="490" y="225" />
            </Array>
          </mxGeometry>
        </mxCell>
        <mxCell id="LGiKxwKSYLCJIGK0Fo9F-112" value="" style="edgeStyle=elbowEdgeStyle;elbow=horizontal;strokeColor=#990000;strokeWidth=2;entryX=0.565;entryY=1.012;entryDx=0;entryDy=0;entryPerimeter=0;" parent="1" edge="1">
          <mxGeometry width="100" height="100" relative="1" as="geometry">
            <mxPoint x="420" y="361" as="sourcePoint" />
            <mxPoint x="420.04999999999984" y="322.00199999999995" as="targetPoint" />
            <Array as="points">
              <mxPoint x="420.01" y="344.15" />
            </Array>
          </mxGeometry>
        </mxCell>
        <mxCell id="LGiKxwKSYLCJIGK0Fo9F-108" value="I2S audio" style="text;spacingTop=-5;align=center;fillColor=default;" parent="1" vertex="1">
          <mxGeometry x="460" y="213" width="80" height="20" as="geometry" />
        </mxCell>
        <mxCell id="LGiKxwKSYLCJIGK0Fo9F-116" value="" style="shape=flexArrow;endArrow=classic;html=1;rounded=0;strokeColor=#666666;fillColor=#B9E0A5;" parent="1" edge="1">
          <mxGeometry width="50" height="50" relative="1" as="geometry">
            <mxPoint x="580" y="155.22000000000003" as="sourcePoint" />
            <mxPoint x="682" y="155.39" as="targetPoint" />
          </mxGeometry>
        </mxCell>
        <mxCell id="LGiKxwKSYLCJIGK0Fo9F-118" value="AUDIO OUT" style="text;spacingTop=-5;align=center;fontSize=20;fontStyle=1;fontColor=#006633;" parent="1" vertex="1">
          <mxGeometry x="700" y="140.62" width="109" height="29.75" as="geometry" />
        </mxCell>
        <mxCell id="ZvlH8nx6Sn0gD6ohMPlv-57" value="" style="edgeStyle=elbowEdgeStyle;elbow=horizontal;strokeColor=#990000;strokeWidth=2;entryX=0.565;entryY=1.012;entryDx=0;entryDy=0;entryPerimeter=0;" parent="1" edge="1">
          <mxGeometry width="100" height="100" relative="1" as="geometry">
            <mxPoint x="540" y="361" as="sourcePoint" />
            <mxPoint x="540.0499999999998" y="322.00199999999995" as="targetPoint" />
            <Array as="points">
              <mxPoint x="540.01" y="344.15" />
            </Array>
          </mxGeometry>
        </mxCell>
        <mxCell id="ZvlH8nx6Sn0gD6ohMPlv-58" value="" style="edgeStyle=elbowEdgeStyle;elbow=horizontal;strokeColor=#990000;strokeWidth=2;entryX=0.565;entryY=1.012;entryDx=0;entryDy=0;entryPerimeter=0;" parent="1" edge="1">
          <mxGeometry width="100" height="100" relative="1" as="geometry">
            <mxPoint x="580" y="361" as="sourcePoint" />
            <mxPoint x="580.0499999999998" y="322.00199999999995" as="targetPoint" />
            <Array as="points">
              <mxPoint x="580.01" y="344.15" />
            </Array>
          </mxGeometry>
        </mxCell>
        <mxCell id="ZvlH8nx6Sn0gD6ohMPlv-59" value="button" style="text;spacingTop=-5;align=center;fillColor=default;fontSize=20;" parent="1" vertex="1">
          <mxGeometry x="380" y="420" width="80" height="20" as="geometry" />
        </mxCell>
        <mxCell id="ZvlH8nx6Sn0gD6ohMPlv-63" value="" style="group" parent="1" vertex="1" connectable="0">
          <mxGeometry x="405" y="380" width="30" height="10" as="geometry" />
        </mxCell>
        <mxCell id="ZvlH8nx6Sn0gD6ohMPlv-60" value="" style="endArrow=none;html=1;rounded=0;strokeWidth=6;" parent="ZvlH8nx6Sn0gD6ohMPlv-63" edge="1">
          <mxGeometry width="50" height="50" relative="1" as="geometry">
            <mxPoint y="17" as="sourcePoint" />
            <mxPoint x="30" y="17" as="targetPoint" />
          </mxGeometry>
        </mxCell>
        <mxCell id="ZvlH8nx6Sn0gD6ohMPlv-61" value="" style="rounded=0;whiteSpace=wrap;html=1;fillColor=#000000;" parent="ZvlH8nx6Sn0gD6ohMPlv-63" vertex="1">
          <mxGeometry x="10" y="7" width="10" height="10" as="geometry" />
        </mxCell>
        <mxCell id="xbbQwFUR8eQS7zudpXW6-62" value="" style="group" vertex="1" connectable="0" parent="1">
          <mxGeometry x="525" y="380" width="30" height="30" as="geometry" />
        </mxCell>
        <mxCell id="xbbQwFUR8eQS7zudpXW6-59" value="" style="ellipse;whiteSpace=wrap;html=1;aspect=fixed;fillColor=#000000;" vertex="1" parent="xbbQwFUR8eQS7zudpXW6-62">
          <mxGeometry width="30" height="30" as="geometry" />
        </mxCell>
        <mxCell id="xbbQwFUR8eQS7zudpXW6-60" value="" style="endArrow=none;html=1;rounded=0;strokeColor=#FFFF33;strokeWidth=6;" edge="1" parent="xbbQwFUR8eQS7zudpXW6-62">
          <mxGeometry width="50" height="50" relative="1" as="geometry">
            <mxPoint x="16" y="14" as="sourcePoint" />
            <mxPoint x="26" y="4" as="targetPoint" />
          </mxGeometry>
        </mxCell>
        <mxCell id="xbbQwFUR8eQS7zudpXW6-61" value="" style="ellipse;whiteSpace=wrap;html=1;aspect=fixed;fillColor=none;strokeColor=#808080;" vertex="1" parent="xbbQwFUR8eQS7zudpXW6-62">
          <mxGeometry width="30" height="30" as="geometry" />
        </mxCell>
        <mxCell id="xbbQwFUR8eQS7zudpXW6-63" value="" style="group" vertex="1" connectable="0" parent="1">
          <mxGeometry x="565" y="380" width="30" height="30" as="geometry" />
        </mxCell>
        <mxCell id="xbbQwFUR8eQS7zudpXW6-64" value="" style="ellipse;whiteSpace=wrap;html=1;aspect=fixed;fillColor=#000000;" vertex="1" parent="xbbQwFUR8eQS7zudpXW6-63">
          <mxGeometry width="30" height="30" as="geometry" />
        </mxCell>
        <mxCell id="xbbQwFUR8eQS7zudpXW6-65" value="" style="endArrow=none;html=1;rounded=0;strokeColor=#FFFF33;strokeWidth=6;" edge="1" parent="xbbQwFUR8eQS7zudpXW6-63">
          <mxGeometry width="50" height="50" relative="1" as="geometry">
            <mxPoint x="16" y="14" as="sourcePoint" />
            <mxPoint x="26" y="4" as="targetPoint" />
          </mxGeometry>
        </mxCell>
        <mxCell id="xbbQwFUR8eQS7zudpXW6-66" value="" style="ellipse;whiteSpace=wrap;html=1;aspect=fixed;fillColor=none;strokeColor=#808080;" vertex="1" parent="xbbQwFUR8eQS7zudpXW6-63">
          <mxGeometry width="30" height="30" as="geometry" />
        </mxCell>
        <mxCell id="xbbQwFUR8eQS7zudpXW6-67" value="potentiometers" style="text;spacingTop=-5;align=center;fillColor=default;fontSize=20;" vertex="1" parent="1">
          <mxGeometry x="520" y="420" width="80" height="20" as="geometry" />
        </mxCell>
        <mxCell id="xbbQwFUR8eQS7zudpXW6-68" value="PC" style="whiteSpace=wrap;align=center;verticalAlign=middle;fontStyle=1;strokeWidth=3;fillColor=#FFFFCC" vertex="1" parent="1">
          <mxGeometry x="170" y="255.5" width="126" height="60" as="geometry" />
        </mxCell>
        <mxCell id="xbbQwFUR8eQS7zudpXW6-69" value="" style="edgeStyle=elbowEdgeStyle;elbow=horizontal;strokeColor=#990000;strokeWidth=2;entryX=1.004;entryY=0.65;entryDx=0;entryDy=0;entryPerimeter=0;" edge="1" parent="1" target="xbbQwFUR8eQS7zudpXW6-68">
          <mxGeometry width="100" height="100" relative="1" as="geometry">
            <mxPoint x="385" y="295" as="sourcePoint" />
            <mxPoint x="300" y="295" as="targetPoint" />
            <Array as="points">
              <mxPoint x="325.81" y="269" />
            </Array>
          </mxGeometry>
        </mxCell>
        <mxCell id="xbbQwFUR8eQS7zudpXW6-70" value="" style="edgeStyle=elbowEdgeStyle;elbow=horizontal;strokeColor=#990000;strokeWidth=2;exitX=0.545;exitY=0.002;exitDx=0;exitDy=0;exitPerimeter=0;entryX=0;entryY=0.427;entryDx=0;entryDy=0;entryPerimeter=0;" edge="1" parent="1">
          <mxGeometry width="100" height="100" relative="1" as="geometry">
            <mxPoint x="295.9999999999999" y="275.002" as="sourcePoint" />
            <mxPoint x="385.0000000000001" y="275.317" as="targetPoint" />
            <Array as="points">
              <mxPoint x="296.01" y="238.85999999999996" />
            </Array>
          </mxGeometry>
        </mxCell>
        <mxCell id="xbbQwFUR8eQS7zudpXW6-71" value="USB AUDIO IN" style="text;spacingTop=-5;align=center;fontSize=20;fontStyle=1;fontColor=#006633;" vertex="1" parent="1">
          <mxGeometry x="287.5" y="208" width="109" height="29.75" as="geometry" />
        </mxCell>
        <mxCell id="xbbQwFUR8eQS7zudpXW6-72" value="&#xa;USB" style="text;spacingTop=-5;align=center;fillColor=default;" vertex="1" parent="1">
          <mxGeometry x="324" y="262.5" width="34" height="50" as="geometry" />
        </mxCell>
      </root>
    </mxGraphModel>
  </diagram>
</mxfile>
